<svg width="104" height="104" viewBox="0 0 59 58" xmlns="http://www.w3.org/2000/svg"><g fill="none" fill-rule="evenodd"><path fill="#2DC44D" d="M0 57.089h56.784v-1.966H0z"/><path d="M14.34 55.948H4.99V53.58c0-.609.512-1.103 1.142-1.103h7.063c.631 0 1.143.494 1.143 1.103v2.367z" stroke="#2DC44D" stroke-width="2"/><path d="M11.542 52.478H7.486V3.695c0-1.081.907-1.958 2.027-1.958s2.029.877 2.029 1.958v48.783z" fill="#FFF"/><path d="M11.542 52.478H7.486V3.695c0-1.081.907-1.958 2.027-1.958s2.029.877 2.029 1.958v48.783z" stroke="#2DC44D" stroke-width="2"/><path fill="#FFF" d="M41.531 35.189H7.486V6.694H41.53L56.785 20.94z"/><path stroke="#2DC44D" stroke-width="2" d="M41.531 35.189H7.486V6.694H41.53L56.785 20.94z"/><path fill="#2DC44D" d="M25.83 19.814l2.334 2.341 5.205-5.217 1.32 1.322-5.865 5.879-.66.661-.66-.661-2.994-3.002z"/><path d="M29.29 29.88h0c-5.058 0-9.16-3.96-9.16-8.845 0-4.885 4.102-8.845 9.16-8.845 5.06 0 9.161 3.96 9.161 8.845 0 4.885-4.102 8.845-9.161 8.845z" stroke="#2DC44D" stroke-width="1.5"/><path stroke="#2DC44D" fill="#2DC44D" d="M12.214 33.149h-1.018V8.658h1.018z"/></g></svg>