<svg xmlns="http://www.w3.org/2000/svg" width="84" height="104"><style>.B{fill:#2dc44d}.C{fill:#fff}</style><path d="M46.85 84.586c-.693 1.486-1.387 2.575-1.98 3.467-.495.693-.89 1.19-1.387 1.585-.693.594-1.288 1.1-1.98 1.486s-1.387.693-2.18 1.1c-.594.297-1.1.495-1.684.693l-2.773.89c-1.1.297-2.278.792-3.764 1.486-3.962 1.783-6.834 3.962-8.617 5.35-.693.495-.693 1.486-.198 2.18s1.486.693 2.18.198c1.684-1.387 4.26-3.368 7.924-4.952 1.882-.792 3.17-1.288 4.457-1.585.594-.198 1.288-.396 1.882-.594s1.288-.495 1.98-.89c.594-.297 1.288-.594 1.98-1 .495-.297 1.1-.693 1.684-1.1.89-.693 1.684-1.486 2.575-2.575s1.684-2.575 2.575-4.358c.396-.792 0-1.684-.693-2.08-.792-.396-1.684-.1-1.98.693z" class="B"/><path d="M65.47 89.44H35.657c-4.06 0-7.33-3.27-7.33-7.33V9.3c0-4.06 3.27-7.33 7.33-7.33H65.47c4.06 0 7.33 3.27 7.33 7.33v72.9c0 3.962-3.27 7.23-7.33 7.23z" class="C"/><path d="M66.362 89.638v-1.486H36.548c-.792 0-1.585-.198-2.278-.495-1-.396-1.882-1.19-2.575-2.08-.594-.89-1-1.98-1-3.27v-72.8c0-.792.198-1.585.495-2.278.396-1 1.19-1.882 2.08-2.575.89-.594 1.98-1 3.27-1h29.813c.792 0 1.585.198 2.278.495 1 .396 1.882 1.19 2.575 2.08.594.89 1 1.98 1 3.27v72.9c0 .792-.198 1.585-.495 2.278-.396 1-1.19 1.882-2.08 2.575-.89.594-1.98 1-3.27 1v2.872c1.19 0 2.377-.198 3.467-.693 1.585-.693 2.97-1.783 3.863-3.17 1-1.387 1.486-3.07 1.486-4.952v-72.8c0-1.19-.198-2.377-.693-3.467-.693-1.585-1.783-2.97-3.17-3.863-1.387-1-3.07-1.486-4.952-1.486H36.548c-1.19 0-2.377.198-3.467.693-1.585.693-2.97 1.783-3.863 3.17-1 1.387-1.486 3.07-1.486 4.952v72.9c0 1.19.198 2.377.693 3.467.693 1.585 1.783 2.97 3.17 3.863 1.387 1 3.07 1.486 4.952 1.486H66.36v-1.585z" class="B"/><path d="M41.7 3.466h19.51V8.22H41.7z" class="C"/><path d="M61.21 3.466h-1.486v3.17h-16.54V4.952h17.928V3.466h-1.486 1.585V1.98H41.7c-.396 0-.792.198-1.1.495s-.495.693-.495 1.1V8.32c0 .396.198.792.495 1.1s.693.495 1.1.495h19.51c.396 0 .792-.198 1.1-.495s.495-.693.495-1.1V3.565c0-.396-.198-.792-.495-1.1s-.693-.495-1.1-.495v1.486z" class="B"/><path d="M81.813 33.973c-.89-2.08-3.368-2.97-5.448-2.08l-4.26 1.882c-2.08.89-2.97 3.368-2.08 5.448s3.368 2.97 5.448 2.08l4.26-1.882c2.08-.89 2.97-3.368 2.08-5.448z" class="C"/><path d="M81.813 33.973l1.387-.594c-.495-1-1.19-1.882-2.08-2.476s-1.98-.89-3.07-.89c-.792 0-1.585.198-2.278.495l-4.26 1.882c-1 .495-1.882 1.19-2.476 2.08s-.89 1.98-.89 3.07c0 .792.198 1.585.495 2.278.495 1 1.19 1.882 2.08 2.476s1.98.89 3.07.89c.792 0 1.585-.198 2.278-.495l4.26-1.882c1-.495 1.882-1.19 2.476-2.08s.89-1.98.89-3.07c0-.792-.198-1.585-.495-2.278l-2.773 1.19c.198.396.198.693.198 1.1 0 .495-.1 1-.396 1.387s-.594.792-1.1 1l-4.26 1.882c-.396.198-.693.198-1.1.198-.495 0-1-.1-1.387-.396s-.792-.594-1-1.1c-.198-.396-.198-.693-.198-1.1 0-.495.1-1 .396-1.387s.594-.792 1.1-1l4.26-1.882c.396-.198.693-.198 1.1-.198.495 0 1 .1 1.387.396s.792.594 1 1.1l1.387-.594z" class="B"/><path d="M81.02 46.552c-.89-2.08-3.368-2.97-5.448-2.08l-4.26 1.98c-2.08.89-2.97 3.368-2.08 5.448s3.368 2.97 5.448 2.08l4.26-1.882c2.08-1 3.07-3.467 2.08-5.547z" class="C"/><path d="M81.02 46.552l1.387-.594c-.495-1.1-1.19-1.882-2.08-2.476s-1.98-.89-3.07-.89c-.792 0-1.585.198-2.278.495l-4.26 1.882c-1.1.495-1.882 1.19-2.476 2.08s-.89 1.98-.89 3.07c0 .792.198 1.585.495 2.278.495 1.1 1.19 1.882 2.08 2.476s1.98.89 3.07.89c.792 0 1.585-.198 2.278-.495l4.26-1.882c1.1-.495 1.882-1.19 2.476-2.08s.89-1.98.89-3.07c0-.792-.198-1.585-.495-2.278l-2.773 1.19c.198.297.198.693.198 1.1 0 .495-.1 1-.396 1.387s-.594.792-1.1 1l-4.26 1.882c-.297.198-.693.198-1.1.198-.495 0-1-.1-1.387-.396s-.792-.594-1-1.1c-.198-.297-.198-.693-.198-1.1 0-.495.1-1 .396-1.387s.594-.792 1.1-1l4.26-1.882c.297-.198.693-.198 1.1-.198.495 0 1 .1 1.387.396s.792.594 1 1.1l1.387-.594z" class="B"/><path d="M81.02 56.06c-.89-2.08-3.368-2.97-5.448-2.08l-6.042 2.773c-2.08.89-2.97 3.368-2.08 5.448s3.368 2.97 5.448 2.08l6.042-2.773c2.08-.89 3.07-3.368 2.08-5.448z" class="C"/><path d="M81.02 56.06l1.387-.594c-.495-1.1-1.19-1.882-2.08-2.476s-1.98-.89-3.07-.89c-.792 0-1.585.198-2.278.495l-6.042 2.773c-1.1.495-1.882 1.19-2.476 2.08s-.89 1.98-.89 3.07c0 .792.198 1.585.495 2.278l1.387-.594h-1.486c0 .198 0 .396.1.594.495 1.1 1.19 1.882 2.08 2.476s1.98.89 3.07.89c.792 0 1.585-.198 2.278-.495l6.042-2.773c1.1-.495 1.882-1.19 2.476-2.08s.89-1.98.89-3.07c0-.792-.198-1.585-.495-2.278l-2.773 1.19c.198.297.198.693.198 1.1 0 .495-.1 1-.396 1.387s-.594.792-1.1 1l-6.042 2.773c-.297.198-.693.198-1.1.198-.495 0-1-.1-1.387-.396s-.792-.594-1-1.1l-1.387.594h1.486c0-.198 0-.396-.1-.594-.198-.297-.198-.693-.198-1.1 0-.495.1-1 .396-1.387s.594-.792 1.1-1l6.14-2.674c.297-.198.693-.198 1.1-.198.495 0 1 .1 1.387.396s.792.594 1 1.1l1.288-.693z" class="B"/><path d="M81.12 66.163l-.198-.495c-.89-1.882-3.17-2.773-5.05-1.882L73 65.074c-1.882.89-2.773 3.17-1.882 5.05l.198.495c.89 1.882 3.17 2.773 5.05 1.882l2.872-1.288c1.882-.792 2.674-3.07 1.882-5.05z" class="C"/><path d="M81.12 66.163l1.387-.594-.297-.495a6.71 6.71 0 00-1.981-2.377c-.89-.495-1.882-.792-2.872-.792-.693 0-1.486.198-2.18.495l-2.872 1.288a6.71 6.71 0 00-2.377 1.981c-.495.89-.792 1.882-.792 2.872 0 .693.198 1.486.495 2.18l.198.495a6.71 6.71 0 001.981 2.377c.89.495 1.882.792 2.872.792.693 0 1.486-.198 2.18-.495l2.872-1.288a6.71 6.71 0 002.377-1.981c.495-.89.792-1.882.792-2.872 0-.693-.198-1.486-.495-2.18l-1.288.594-1.387.594c.1.297.198.594.198 1s-.1.89-.396 1.288c-.198.396-.594.693-1 .89l-2.872 1.288c-.297.1-.594.198-1 .198s-.89-.1-1.288-.396c-.396-.198-.693-.594-.89-1l-.198-.495c-.1-.297-.198-.594-.198-1s.1-.89.396-1.288c.198-.396.594-.693 1-.89l2.872-1.288c.297-.1.594-.198 1-.198s.89.1 1.288.396c.396.198.693.594.89 1l.198.495 1.387-.594z" class="B"/><path d="M29.318 75.474V52.792c1.1-6.14 2.575-8.122.89-14.758-1-3.863-3.863-9.013-6.24-8.617-5.35.792-1.684 6.735-5.646 17.036-3.962 10.5-7.032 9.51-8.815 17.83-1.19 5.35-.297 8.617-3.07 14.362a53.79 53.79 0 01-4.457 7.528" class="C"/><path d="M30.804 75.474V52.792h-1.486l1.486.297c.297-1.98.792-3.566 1.1-5.05.198-.792.297-1.486.396-2.278l.198-2.377c0-1.684-.198-3.467-.89-5.745l-1.1-3.17a9.98 9.98 0 00-1.189-2.278c-.594-1.1-1.387-2.08-2.18-2.872-.396-.396-.89-.693-1.387-1l-.792-.297c-.297-.1-.594-.1-.89-.1h-.495c-.396.1-.792.1-1.19.297-.297.1-.693.297-1 .396a3.5 3.5 0 00-1.387 1.288c-.297.495-.495 1-.693 1.486-.297.89-.396 1.783-.495 2.773l-.495 5.15a34.32 34.32 0 01-1.684 6.636 51.384 51.384 0 01-2.674 5.844c-.594 1.1-1.19 1.98-1.783 2.773l-1.288 1.783a22.42 22.42 0 00-1.783 3.17 26.64 26.64 0 00-1.387 4.457 30.72 30.72 0 00-.594 3.863L6.537 72.8c-.297 1.585-.792 3.27-1.783 5.25-1.486 3.17-3.17 5.646-4.26 7.23-.495.693-.297 1.684.396 2.18s1.684.297 2.18-.396c1.19-1.684 2.97-4.26 4.556-7.726a31.85 31.85 0 001.585-4.16c.495-1.98.693-3.665.89-5.35l.693-5.25c.396-1.98.89-3.368 1.486-4.457.396-.89.89-1.585 1.387-2.278l2.674-3.962c1-1.684 2.08-3.764 3.27-6.834 1-2.674 1.585-5.15 1.882-7.23l.396-4.16.198-2.278.297-1.19c.1-.198.198-.396.198-.495.1-.1.1-.198.198-.198.1-.1.198-.198.396-.297s.495-.198.792-.198c0 0 .1 0 .198.1s.297.198.495.297l1.1 1.19c.594.792 1.19 1.783 1.585 2.773.495 1.1.89 2.18 1.1 3.17.594 2.08.792 3.665.792 4.952 0 .693-.1 1.288-.1 1.98-.1 1-.396 1.98-.594 3.17l-.89 4.06v22.98c0 .89.693 1.486 1.486 1.486 1-.198 1.684-.89 1.684-1.684z" class="B"/><path d="M42.7 42.392h16.343v1H42.7zm0 16.738h16.343v1H42.7z" class="C"/><path d="M50.613 33.28a12.39 12.39 0 00-12.381 12.381 12.39 12.39 0 0012.381 12.381 12.39 12.39 0 0012.381-12.381A12.39 12.39 0 0050.613 33.28zm-2.674 7.627c-1 .297-.792.495-1.486 2.476s-.792 1.19-1.387.693-1-.297-1.98.396c-.89.693 3.27 2.575 4.952 3.764s-1 3.962-2.476 5.745c-1.387 1.882-1.783-.297-1.585-1.486.1-1.19-.1-1.387-1.19-2.476s-.1-2.278.297-2.872c.396-.693 1-.594-1.585-2.575-1.684-1.288-1.783-2.377-1.288-3.368 2.377-4.853 5.05-5.05 5.05-5.05 1.19-.396 1.387-.198 1.585.495s1.1 1.19 2.575 2.278c1.288 1.1-.495 1.684-1.486 1.98zm3.764-4.655l-1.19 1.387c-.693.792-.693.792-1.1.396s-.693-.792-.594-1.288 0-1-.198-1.585c-.297-.594-.495 0-1-.297-.1-.1-.1-.1-.1-.198 1-.297 1.98-.495 3.07-.495h.693c-.198.396-.396.792.198.693.89 0 .792.693.198 1.387zm9.112 10.004c-.396.198-.89-.1-1-.297l-.89-1.486c-.1-.1-.1-.198-.1-.198-.297-.297 0 1.19.297 1.783.297.693.594.495 1.1.594.594.1.198.693-.1 1.1s-.495 1.19-.594 1.98c-.1.89-.297 1.1-.693 1.585s-.495.792-.792 1.288c-.396.495-1.288.495-1.19.297s-.198-.89-.396-1.486-.297-1.1-.1-1.387.396-.89-.198-1.783c-.1-.198-.396.1-.594-.297-.1-.396-.792-.396-1.783-.396-1 .1-.792-.297-1.1-.89s-.1-1.19.1-1.585c.198-.495.198-.297.396-.89s.693-.693.693-.693c1.1-.297 1.882-.198 2.278.198s.792.792 1 .495c.297-.594 1.288-.297 1.783-.594l.198-.198c.594-.594 0-1 .198-1.585.1-.594-1.1-.297-1.783.594-.792.89-1.19 0-2.08-.495-1-.594-1 1.1-1.783.89-.693-.198.1-.89 0-2.18s.297-.792 1.288-1.486 1.486-2.08 2.278-2.278c.495-.1 1.19.594 1.783 1.19.89.89 2.773 4.655 2.674 6.933-.198 1.288-.495 1.486-.89 1.288z" class="B"/></svg>