<svg width="104" height="98" viewBox="0 0 64 61" xmlns="http://www.w3.org/2000/svg"><g transform="translate(1.232 2)" fill="none" fill-rule="evenodd"><path d="M48.35 44.402c.962.422 1.272 1.04 1.289 1.748h-3.645v8.592h-3.649v-10.34h6.006z" fill="#2DC44D"/><path d="M54.392 36.495H42.89c-1.957 1.923-4.207 3.782-7.234 5.474h18.737v-5.474z" fill="#81DB94"/><path d="M50.253 29.804a5.474 5.474 0 015.474 5.474v18.248A5.474 5.474 0 0150.253 59H10.717a5.474 5.474 0 01-5.475-5.474V35.278a5.474 5.474 0 015.475-5.474h39.536zm0 1.825H10.717a3.65 3.65 0 00-3.647 3.513l-.003.136v18.248a3.65 3.65 0 003.513 3.647l.137.002h39.536a3.65 3.65 0 003.647-3.512l.002-.137V35.278a3.65 3.65 0 00-3.513-3.646l-.136-.003z" fill="#2DC44D" fill-rule="nonzero"/><path d="M7.067 36.495H18.57c1.957 1.923 4.207 3.782 7.235 5.474H7.067v-5.474z" fill="#81DB94"/><rect fill="#2DC44D" x="10.108" y="48.052" width="11.557" height="1.825" rx=".912"/><rect fill="#2DC44D" x="10.108" y="51.093" width="15.206" height="1.825" rx=".912"/><path d="M41.79 44.402v1.748h-3.053c.545-1.044 1.604-1.586 3.053-1.748z" fill="#2DC44D"/><path d="M45.15 3.262C40.104 4.687 35.26 3.608 30.617 0c-4.642 3.608-9.487 4.687-14.533 3.262-7.048 19.743-1.088 30.335 14.533 38.707 15.62-8.372 21.581-18.964 14.533-38.707z" stroke="#2DC44D" stroke-width="2.5" fill="#FFF"/><path d="M30.485 13.99c-2.856 0-5.17 2.178-5.17 4.866l.002.146c.044 1.407.73 2.699 1.84 3.578l.037.029v5.979h6.58l.001-5.98.038-.028c1.149-.91 1.842-2.26 1.842-3.724 0-2.688-2.315-4.866-5.17-4.866zm0 1.327c2.076 0 3.76 1.584 3.76 3.539 0 1.31-.756 2.453-1.88 3.065v5.34h-3.76v-5.34c-1.124-.612-1.88-1.755-1.88-3.065 0-1.955 1.683-3.54 3.76-3.54z" stroke="#2DC44D" fill="#2DC44D" fill-rule="nonzero"/><path d="M41.749 54.666v-1.748h-3.053c.544 1.044 1.604 1.586 3.053 1.748zM46.603 54.666v-1.748h3.053c-.544 1.044-1.604 1.586-3.053 1.748z" fill="#2DC44D"/><rect fill="#2DC44D" x="38.696" y="47.443" width="3.041" height="1.825" rx=".3"/><rect fill="#2DC44D" x="38.696" y="49.876" width="3.041" height="1.825" rx=".3"/><rect fill="#2DC44D" x="46.603" y="47.443" width="3.041" height="1.825" rx=".3"/><rect fill="#2DC44D" x="46.603" y="49.876" width="3.041" height="1.825" rx=".3"/><path d="M54.17 4.482a.608.608 0 01.789.345c1.947 4.983 2.547 10.482 1.753 16.54a.608.608 0 01-1.206-.157c.768-5.86.19-11.153-1.68-15.94a.608.608 0 01.345-.788z" stroke="#2DC44D" stroke-width=".5" fill="#2DC44D" fill-rule="nonzero"/><circle stroke="#2DC44D" stroke-width=".5" fill="#2DC44D" cx="55.423" cy="24.026" r="1"/><path d="M58.327 1.401a.608.608 0 01.809.294c3.11 6.655 3.817 14.66 1.777 25.148a.608.608 0 01-1.194-.232c1.993-10.249 1.31-17.993-1.685-24.401a.608.608 0 01.293-.809zM7.897 24.36a.608.608 0 01-.788-.345C5.162 19.033 4.56 13.533 5.355 7.475a.608.608 0 111.207.158c-.768 5.86-.19 11.153 1.68 15.94a.608.608 0 01-.345.787z" stroke="#2DC44D" stroke-width=".5" fill="#2DC44D" fill-rule="nonzero"/><circle stroke="#2DC44D" stroke-width=".5" fill="#2DC44D" transform="rotate(-180 6.645 4.817)" cx="6.645" cy="4.817" r="1"/><path d="M3.74 27.441a.608.608 0 01-.808-.293C-.18 20.493-.885 12.488 1.155 2a.608.608 0 111.194.232c-1.994 10.249-1.31 17.993 1.685 24.4a.608.608 0 01-.294.81z" stroke="#2DC44D" stroke-width=".5" fill="#2DC44D" fill-rule="nonzero"/></g></svg>